<?xml version="1.0" encoding="utf-8"?>
<!-- Generator: Adobe Illustrator 23.0.6, SVG Export Plug-In . SVG Version: 6.00 Build 0)  -->
<svg version="1.1" id="Layer_1" xmlns="http://www.w3.org/2000/svg" xmlns:xlink="http://www.w3.org/1999/xlink" x="0px" y="0px"
	 viewBox="0 0 40 40" style="enable-background:new 0 0 40 40;" xml:space="preserve">
<style type="text/css">
	.st0{fill:#555555;stroke:#555555;stroke-width:0.2835;stroke-miterlimit:10;}
</style>
<path class="st0" d="M9.8,29.2c1.6-1.1,3.2-2,4.9-2.6c1.7-0.6,3.4-0.9,5.4-0.9s3.7,0.3,5.4,0.9c1.7,0.6,3.3,1.5,4.9,2.6
	c1.2-1.3,2-2.8,2.6-4.3c0.6-1.5,0.9-3.2,0.9-5c0-3.9-1.3-7.1-4-9.8c-2.7-2.7-5.9-4-9.8-4s-7.1,1.3-9.8,4s-4,5.9-4,9.8
	c0,1.8,0.3,3.4,0.9,5C7.7,26.5,8.6,27.9,9.8,29.2z M20,21c-1.5,0-2.8-0.5-3.8-1.5c-1-1-1.6-2.3-1.6-3.8c0-1.5,0.5-2.8,1.6-3.8
	c1-1,2.3-1.5,3.8-1.5s2.8,0.5,3.8,1.6c1,1,1.6,2.3,1.6,3.8s-0.5,2.8-1.6,3.8C22.8,20.5,21.5,21,20,21z M20,35.8
	c-2.2,0-4.3-0.4-6.2-1.3s-3.6-2-5-3.4c-1.4-1.4-2.6-3.1-3.4-5s-1.3-4-1.3-6.2c0-2.2,0.4-4.3,1.3-6.2s2-3.6,3.4-5
	c1.4-1.4,3.1-2.6,5-3.4s4-1.3,6.2-1.3s4.3,0.4,6.2,1.3s3.6,2,5,3.4c1.4,1.4,2.6,3.1,3.4,5s1.3,4,1.3,6.2s-0.4,4.3-1.3,6.2
	s-2,3.6-3.4,5c-1.4,1.4-3.1,2.6-5,3.4S22.2,35.8,20,35.8z M20,33.7c1.5,0,3-0.3,4.5-0.8s2.8-1.3,4.1-2.3c-1.3-0.9-2.6-1.7-4-2.2
	c-1.4-0.5-3-0.8-4.5-0.8s-3.1,0.3-4.5,0.8c-1.4,0.5-2.8,1.2-4,2.2c1.3,1,2.6,1.8,4.1,2.3S18.5,33.7,20,33.7z M20,19
	c0.9,0,1.7-0.3,2.3-0.9c0.6-0.6,0.9-1.4,0.9-2.3c0-0.9-0.3-1.7-0.9-2.4c-0.6-0.6-1.4-0.9-2.3-0.9s-1.7,0.3-2.3,0.9
	c-0.6,0.6-0.9,1.4-0.9,2.4c0,0.9,0.3,1.7,0.9,2.3C18.3,18.7,19.1,19,20,19z"/>
</svg>
