<?xml version="1.0" encoding="utf-8"?>
<!-- Generator: Adobe Illustrator 23.0.6, SVG Export Plug-In . SVG Version: 6.00 Build 0)  -->
<svg version="1.1" id="Layer_1" xmlns="http://www.w3.org/2000/svg" xmlns:xlink="http://www.w3.org/1999/xlink" x="0px" y="0px"
	 viewBox="0 0 48 48" style="enable-background:new 0 0 48 48;" xml:space="preserve">
<style type="text/css">
	.st0{fill:#555555;stroke:#555555;stroke-width:0.2835;stroke-miterlimit:10;}
</style>
<path class="st0" d="M30.8,43.6c-3.7-1.5-6.9-3.8-9.6-6.5c-2.7-2.8-4.7-5.9-6.1-9.4s-2.1-7.1-2.1-11c-0.1-3.8,0.7-7.7,2.3-11.3
	c0.2-0.5,0.5-0.8,1.1-1.1c0.4-0.2,1-0.2,1.5,0l5.5,2.3c0.4,0.2,0.8,0.5,1,1.1c0.2,0.5,0.2,1,0,1.5c-0.4,1.1-0.8,2.1-1,3
	c-0.3,1-0.4,1.9-0.4,2.9c0,0.4-0.1,0.7-0.4,1c-0.2,0.3-0.5,0.5-0.8,0.6l-6,2.4c0.2,2.7,0.8,5.2,1.8,7.6s2.3,4.6,4,6.7l6-2.4
	c0.4-0.2,0.7-0.2,1.1-0.1c0.4,0.1,0.6,0.2,1,0.4c0.7,0.7,1.6,1.3,2.4,1.9c0.9,0.5,1.8,1,2.7,1.3c0.5,0.2,0.8,0.5,1.1,1.1
	c0.3,0.5,0.2,1.1,0,1.6l-2.3,5.4c-0.2,0.4-0.5,0.8-1.1,1C31.8,43.8,31.2,43.8,30.8,43.6z M23.3,35.5c1.2,1.2,2.4,2.1,3.7,3.1
	c1.3,0.9,2.7,1.7,4.2,2.4l0,0l0,0l1.8-4.3c-1-0.4-1.9-1-2.7-1.5c-0.8-0.5-1.6-1.1-2.3-1.6l0,0l0,0L23.3,35.5z M36.4,28.6
	c1.3-3.2,1.3-6.3,0.1-9.6c-1.3-3.2-3.6-5.4-6.7-6.8l1-2.4c1.9,0.8,3.6,2,4.9,3.4c1.4,1.4,2.4,3,3.1,4.8s1.1,3.7,1.1,5.7
	c0,2-0.4,3.9-1.2,5.9L36.4,28.6z M30.7,26.2c0.7-1.6,0.7-3.2,0-4.9c-0.6-1.6-1.8-2.8-3.4-3.5l1-2.4c2.3,1,3.9,2.6,4.8,4.9
	c0.9,2.3,0.9,4.6-0.1,6.9L30.7,26.2z M15.5,16.4l4.7-1.9c0.1-0.9,0.3-1.9,0.4-2.8s0.5-1.9,0.9-2.9l0,0l0,0l-4.2-1.8
	c-0.5,1.4-1,2.9-1.3,4.5C15.8,13.1,15.6,14.7,15.5,16.4z"/>
</svg>
