<?xml version="1.0" encoding="utf-8"?>
<!-- Generator: Adobe Illustrator 23.0.6, SVG Export Plug-In . SVG Version: 6.00 Build 0)  -->
<svg version="1.1" id="Layer_1" xmlns="http://www.w3.org/2000/svg" xmlns:xlink="http://www.w3.org/1999/xlink" x="0px" y="0px"
	 viewBox="0 0 40 40" style="enable-background:new 0 0 40 40;" xml:space="preserve">
<style type="text/css">
	.st0{fill:#555555;stroke:#555555;stroke-width:0.2835;stroke-miterlimit:10;}
</style>
<path class="st0" d="M8.5,35.8c-0.7,0-1.3-0.3-1.9-0.8c-0.5-0.5-0.8-1.1-0.8-1.9v-20c0-0.7,0.3-1.3,0.8-1.9s1.1-0.8,1.9-0.8h4.3
	c0-2,0.7-3.8,2.1-5.2c1.4-1.4,3.1-2.1,5.1-2.1c2,0,3.7,0.7,5.2,2.1c1.5,1.4,2.2,3.1,2.2,5.2h4.3c0.7,0,1.3,0.3,1.9,0.8
	s0.8,1.1,0.8,1.9v20c0,0.7-0.3,1.3-0.8,1.9c-0.5,0.5-1.1,0.8-1.9,0.8H8.5z M8.5,33.7h23.1c0.1,0,0.3-0.1,0.4-0.2
	c0.1-0.1,0.2-0.2,0.2-0.4v-20c0-0.1-0.1-0.3-0.2-0.4c-0.1-0.1-0.2-0.2-0.4-0.2H8.5c-0.1,0-0.3,0.1-0.4,0.2C8,13,7.9,13.1,7.9,13.2
	v20c0,0.1,0.1,0.3,0.2,0.4C8.2,33.7,8.3,33.7,8.5,33.7z M20,21.9c2,0,3.8-0.7,5.2-2.2c1.5-1.4,2.2-3.2,2.2-5.2h-2.1
	c0,1.4-0.5,2.7-1.6,3.7c-1,1-2.3,1.6-3.7,1.6s-2.7-0.5-3.7-1.6c-1-1-1.6-2.3-1.6-3.7h-2.1c0,2,0.7,3.8,2.2,5.2
	C16.2,21.2,18,21.9,20,21.9z M14.8,10.6h10.4c0-1.4-0.5-2.7-1.5-3.7c-1-1-2.2-1.5-3.7-1.5s-2.7,0.5-3.7,1.5
	C15.3,8,14.8,9.2,14.8,10.6z M7.9,33.7v-21V33.7z"/>
</svg>
